<?xml version="1.0" encoding="UTF-8"?>
<!DOCTYPE svg PUBLIC "-//W3C//DTD SVG 1.1//EN" "http://www.w3.org/Graphics/SVG/1.1/DTD/svg11.dtd">
<svg xmlns="http://www.w3.org/2000/svg" version="1.1" width="262px" height="331px" style="shape-rendering:geometricPrecision; text-rendering:geometricPrecision; image-rendering:optimizeQuality; fill-rule:evenodd; clip-rule:evenodd" xmlns:xlink="http://www.w3.org/1999/xlink">
<g><path style="opacity:0.004" fill="#fefffe" d="M 173.5,-0.5 C 173.833,-0.5 174.167,-0.5 174.5,-0.5C 174.315,0.170143 173.981,0.170143 173.5,-0.5 Z"/></g>
<g><path style="opacity:0.004" fill="#fefffe" d="M 138.5,1.5 C 139.833,2.16667 139.833,2.16667 138.5,1.5 Z"/></g>
<g><path style="opacity:0.004" fill="#fefffe" d="M 55.5,2.5 C 56.8333,3.16667 56.8333,3.16667 55.5,2.5 Z"/></g>
<g><path style="opacity:0.004" fill="#fefffe" d="M 89.5,4.5 C 90.8333,5.16667 90.8333,5.16667 89.5,4.5 Z"/></g>
<g><path style="opacity:0.132" fill="#e4e4e4" d="M 158.5,7.5 C 118.33,7.16808 78.3299,7.50142 38.5,8.5C 35.8333,8.5 33.1667,8.5 30.5,8.5C 31.6085,7.71003 32.9419,7.21003 34.5,7C 76.002,6.16869 117.335,6.33535 158.5,7.5 Z"/></g>
<g><path style="opacity:0.722" fill="#717070" d="M 38.5,8.5 C 78.3299,7.50142 118.33,7.16808 158.5,7.5C 158.829,20.0113 158.495,32.3446 157.5,44.5C 157.5,32.5 157.5,20.5 157.5,8.5C 117.833,8.5 78.1667,8.5 38.5,8.5 Z"/></g>
<g><path style="opacity:1" fill="#292929" d="M 30.5,8.5 C 33.1667,8.5 35.8333,8.5 38.5,8.5C 78.1667,8.5 117.833,8.5 157.5,8.5C 157.5,20.5 157.5,32.5 157.5,44.5C 149.981,44.175 142.648,44.5084 135.5,45.5C 134.502,74.3285 134.169,103.329 134.5,132.5C 122.814,132.832 111.148,132.499 99.5,131.5C 99.183,103.771 99.5164,75.9378 100.5,48C 99.9341,47.0053 99.2674,46.172 98.5,45.5C 85.8289,45.3334 73.1623,45.5001 60.5,46C 56.7084,48.0527 55.5418,51.2194 57,55.5C 57.3826,56.056 57.8826,56.3893 58.5,56.5C 58.5106,58.0174 59.1772,59.1841 60.5,60C 66.5518,63.6876 72.2184,67.8542 77.5,72.5C 79.264,76.3663 81.264,80.033 83.5,83.5C 87.345,100.298 83.345,114.798 71.5,127C 67.1845,129.773 62.5179,131.773 57.5,133C 42.8371,133.5 28.1705,133.667 13.5,133.5C 12.5048,121.345 12.1714,109.011 12.5,96.5C 20.903,96.8699 29.2363,96.3699 37.5,95C 40.8645,91.9738 41.3645,88.4738 39,84.5C 29.1456,75.8257 20.6456,66.159 13.5,55.5C 12.6187,51.5457 11.9521,47.5457 11.5,43.5C 11.2318,37.0463 11.8984,30.7129 13.5,24.5C 15.8008,21.1899 18.1342,17.8566 20.5,14.5C 22.8816,13.6493 24.8816,12.316 26.5,10.5C 28.153,10.3404 29.4863,9.67373 30.5,8.5 Z"/></g>
<g><path style="opacity:0.055" fill="#f4f4f4" d="M 158.5,7.5 C 159.66,19.9933 159.827,32.6599 159,45.5C 151.587,46.4808 144.087,46.8142 136.5,46.5C 143.5,45.8333 150.5,45.1667 157.5,44.5C 158.495,32.3446 158.829,20.0113 158.5,7.5 Z"/></g>
<g><path style="opacity:0.373" fill="#d4d4d3" d="M 30.5,8.5 C 29.4863,9.67373 28.153,10.3404 26.5,10.5C 27.287,8.89578 28.6203,8.22911 30.5,8.5 Z"/></g>
<g><path style="opacity:0.18" fill="#d9d9d8" d="M 26.5,10.5 C 24.8816,12.316 22.8816,13.6493 20.5,14.5C 21.733,12.2036 23.733,10.8702 26.5,10.5 Z"/></g>
<g><path style="opacity:0.839" fill="#6f6b6a" d="M 224.5,16.5 C 222.797,17.6602 222.131,16.9935 222.5,14.5C 223.339,13.3588 224.006,12.0255 224.5,10.5C 225.002,9.47899 225.668,9.31232 226.5,10C 227.786,12.0223 228.786,14.1889 229.5,16.5C 228.043,15.7417 226.376,15.7417 224.5,16.5 Z"/></g>
<g><path style="opacity:0.016" fill="#eae9e9" d="M 222.5,14.5 C 222.131,16.9935 222.797,17.6602 224.5,16.5C 223.64,18.9701 222.306,19.1368 220.5,17C 221.066,16.0053 221.733,15.172 222.5,14.5 Z"/></g>
<g><path style="opacity:0.276" fill="#d4d3d3" d="M 233.5,10.5 C 235.203,11.6602 235.869,10.9935 235.5,8.5C 238.85,8.33499 242.183,8.50166 245.5,9C 249.058,14.3523 247.725,17.6856 241.5,19C 243.437,19.1216 244.77,19.955 245.5,21.5C 242.946,20.612 240.279,20.2786 237.5,20.5C 237.264,23.6085 237.597,26.6085 238.5,29.5C 236.219,29.9227 234.552,29.256 233.5,27.5C 234.15,27.8039 234.817,28.1373 235.5,28.5C 236.652,25.8938 236.818,23.2272 236,20.5C 235.667,22.1667 235.333,23.8333 235,25.5C 229.83,18.535 228.164,19.535 230,28.5C 230.219,27.062 230.719,25.7287 231.5,24.5C 232.298,24.9569 232.631,25.6236 232.5,26.5C 231.596,27.209 231.263,28.209 231.5,29.5C 228.549,29.7128 225.882,29.0461 223.5,27.5C 225.153,26.2006 226.653,26.5339 228,28.5C 227.981,26.8925 227.815,25.2259 227.5,23.5C 228.434,22.4324 228.768,21.099 228.5,19.5C 230.39,19.2965 231.89,19.9632 233,21.5C 236.333,19.5 236.333,17.5 233,15.5C 232.517,16.448 232.351,17.448 232.5,18.5C 229.549,18.7128 226.882,18.0461 224.5,16.5C 226.376,15.7417 228.043,15.7417 229.5,16.5C 228.786,14.1889 227.786,12.0223 226.5,10C 225.668,9.31232 225.002,9.47899 224.5,10.5C 224.006,12.0255 223.339,13.3588 222.5,14.5C 221.831,10.2699 223.498,8.4366 227.5,9C 228.874,12.4101 229.541,12.2434 229.5,8.5C 231.483,8.15684 232.817,8.82351 233.5,10.5 Z M 243.5,11.5 C 243.5,12.8333 243.5,14.1667 243.5,15.5C 242.414,15.38 241.747,14.7133 241.5,13.5C 241.747,12.2867 242.414,11.62 243.5,11.5 Z"/></g>
<g><path style="opacity:0.805" fill="#585353" d="M 233.5,10.5 C 235.73,16.0566 236.897,15.7232 237,9.5C 238.836,18.465 237.17,19.465 232,12.5C 231.667,14.1667 231.333,15.8333 231,17.5C 230.182,14.7728 230.348,12.1062 231.5,9.5C 232.183,9.86273 232.85,10.1961 233.5,10.5 Z"/></g>
<g><path style="opacity:0.705" fill="#706d6d" d="M 239.5,9.5 C 246.004,9.13765 247.671,11.6377 244.5,17C 242.866,17.4935 241.199,17.6602 239.5,17.5C 239.5,14.8333 239.5,12.1667 239.5,9.5 Z M 243.5,11.5 C 243.5,12.8333 243.5,14.1667 243.5,15.5C 242.414,15.38 241.747,14.7133 241.5,13.5C 241.747,12.2867 242.414,11.62 243.5,11.5 Z"/></g>
<g><path style="opacity:0.063" fill="#e7e6e6" d="M 243.5,11.5 C 242.414,11.62 241.747,12.2867 241.5,13.5C 241.747,14.7133 242.414,15.38 243.5,15.5C 242.791,16.404 241.791,16.7373 240.5,16.5C 240.5,14.5 240.5,12.5 240.5,10.5C 241.791,10.2627 242.791,10.596 243.5,11.5 Z"/></g>
<g><path style="opacity:0.239" fill="#e0dfdf" d="M 20.5,14.5 C 18.1342,17.8566 15.8008,21.1899 13.5,24.5C 14.3358,20.016 16.6691,16.6826 20.5,14.5 Z"/></g>
<g><path style="opacity:0.322" fill="#dcdbdb" d="M 223.5,20.5 C 223.48,22.143 224.147,23.4763 225.5,24.5C 223.704,25.1414 222.204,26.1414 221,27.5C 220.51,26.2068 220.343,24.8734 220.5,23.5C 220.586,22.5041 220.252,21.6708 219.5,21C 217.527,20.5045 215.527,20.3379 213.5,20.5C 212.964,23.6981 213.631,26.3647 215.5,28.5C 214.791,29.404 213.791,29.7373 212.5,29.5C 212.167,20.1667 211.833,20.1667 211.5,29.5C 210.167,29.5 208.833,29.5 207.5,29.5C 207.167,20.1667 206.833,20.1667 206.5,29.5C 205.5,29.5 204.5,29.5 203.5,29.5C 204.968,28.2209 205.635,26.5542 205.5,24.5C 204.209,24.7373 203.209,24.404 202.5,23.5C 203.167,23.5 203.5,23.1667 203.5,22.5C 205.117,21.962 206.784,21.6287 208.5,21.5C 208.192,23.924 208.526,26.2573 209.5,28.5C 210.004,25.7012 211.004,23.2012 212.5,21C 208.179,20.501 203.846,20.3343 199.5,20.5C 198.843,23.8408 200.176,25.8408 203.5,26.5C 202.271,27.2811 200.938,27.7811 199.5,28C 200.056,28.3826 200.389,28.8826 200.5,29.5C 198.598,26.6627 197.931,23.3293 198.5,19.5C 205.564,18.7375 212.897,18.9042 220.5,20C 221.191,21.0674 221.691,22.2341 222,23.5C 222.232,22.2625 222.732,21.2625 223.5,20.5 Z"/></g>
<g><path style="opacity:0.263" fill="#e3e2e2" d="M 223.5,20.5 C 226.33,18.9652 227.663,19.9652 227.5,23.5C 226.764,21.7706 225.43,20.7706 223.5,20.5 Z"/></g>
<g><path style="opacity:0.165" fill="#e1e0e0" d="M 218.5,22.5 C 218.5,23.1667 218.5,23.8333 218.5,24.5C 217.5,24.5 216.5,24.5 215.5,24.5C 215.5,23.5 215.5,22.5 215.5,21.5C 216.791,21.2627 217.791,21.596 218.5,22.5 Z"/></g>
<g><path style="opacity:0.843" fill="#514c4c" d="M 220.5,23.5 C 219.833,23.1667 219.167,22.8333 218.5,22.5C 217.791,21.596 216.791,21.2627 215.5,21.5C 215.5,22.5 215.5,23.5 215.5,24.5C 216.5,24.5 217.5,24.5 218.5,24.5C 219.833,25.1667 219.833,25.8333 218.5,26.5C 217.791,25.596 216.791,25.2627 215.5,25.5C 215.5,26.5 215.5,27.5 215.5,28.5C 213.631,26.3647 212.964,23.6981 213.5,20.5C 215.527,20.3379 217.527,20.5045 219.5,21C 220.252,21.6708 220.586,22.5041 220.5,23.5 Z"/></g>
<g><path style="opacity:0.239" fill="#cacac9" d="M 13.5,24.5 C 11.8984,30.7129 11.2318,37.0463 11.5,43.5C 10.5269,41.0521 10.1936,38.3854 10.5,35.5C 10.6744,32.1262 11.1744,28.7928 12,25.5C 12.3826,24.944 12.8826,24.6107 13.5,24.5 Z"/></g>
<g><path style="opacity:0.82" fill="#736f6e" d="M 203.5,22.5 C 202.833,22.5 202.5,22.8333 202.5,23.5C 203.209,24.404 204.209,24.7373 205.5,24.5C 205.635,26.5542 204.968,28.2209 203.5,29.5C 202.652,30.625 201.652,30.625 200.5,29.5C 200.389,28.8826 200.056,28.3826 199.5,28C 200.938,27.7811 202.271,27.2811 203.5,26.5C 200.176,25.8408 198.843,23.8408 199.5,20.5C 203.846,20.3343 208.179,20.501 212.5,21C 211.004,23.2012 210.004,25.7012 209.5,28.5C 208.526,26.2573 208.192,23.924 208.5,21.5C 206.784,21.6287 205.117,21.962 203.5,22.5 Z"/></g>
<g><path style="opacity:0.931" fill="#645f5e" d="M 233.5,27.5 C 232.833,27.5 232.5,27.1667 232.5,26.5C 232.631,25.6236 232.298,24.9569 231.5,24.5C 230.719,25.7287 230.219,27.062 230,28.5C 228.164,19.535 229.83,18.535 235,25.5C 235.333,23.8333 235.667,22.1667 236,20.5C 236.818,23.2272 236.652,25.8938 235.5,28.5C 234.817,28.1373 234.15,27.8039 233.5,27.5 Z"/></g>
<g><path style="opacity:0.02" fill="#e7e7e7" d="M 218.5,26.5 C 219.11,27.391 219.443,28.391 219.5,29.5C 218.21,28.9423 217.377,27.9423 217,26.5C 216.722,27.4158 216.222,28.0825 215.5,28.5C 215.5,27.5 215.5,26.5 215.5,25.5C 216.791,25.2627 217.791,25.596 218.5,26.5 Z"/></g>
<g><path style="opacity:0.882" fill="#797574" d="M 223.5,20.5 C 225.43,20.7706 226.764,21.7706 227.5,23.5C 227.815,25.2259 227.981,26.8925 228,28.5C 226.653,26.5339 225.153,26.2006 223.5,27.5C 222.817,29.1765 221.483,29.8432 219.5,29.5C 219.443,28.391 219.11,27.391 218.5,26.5C 219.833,25.8333 219.833,25.1667 218.5,24.5C 218.5,23.8333 218.5,23.1667 218.5,22.5C 219.167,22.8333 219.833,23.1667 220.5,23.5C 220.343,24.8734 220.51,26.2068 221,27.5C 222.204,26.1414 223.704,25.1414 225.5,24.5C 224.147,23.4763 223.48,22.143 223.5,20.5 Z"/></g>
<g><path style="opacity:0.714" fill="#848180" d="M 245.5,21.5 C 247.673,28.3218 245.34,30.9885 238.5,29.5C 237.597,26.6085 237.264,23.6085 237.5,20.5C 240.279,20.2786 242.946,20.612 245.5,21.5 Z M 240.5,22.5 C 242.476,23.4271 242.809,24.7605 241.5,26.5C 240.571,25.3112 240.238,23.9778 240.5,22.5 Z"/></g>
<g><path style="opacity:0.122" fill="#e6e5e5" d="M 239.5,21.5 C 243.068,21.7593 244.401,23.7593 243.5,27.5C 242.167,27.5 240.833,27.5 239.5,27.5C 239.5,25.5 239.5,23.5 239.5,21.5 Z M 240.5,22.5 C 240.238,23.9778 240.571,25.3112 241.5,26.5C 242.809,24.7605 242.476,23.4271 240.5,22.5 Z"/></g>
<g><path style="opacity:0.033" fill="#efefef" d="M 10.5,35.5 C 10.1936,38.3854 10.5269,41.0521 11.5,43.5C 11.9521,47.5457 12.6187,51.5457 13.5,55.5C 12.8826,55.3893 12.3826,55.056 12,54.5C 9.93139,48.102 9.43139,41.7687 10.5,35.5 Z"/></g>
<g><path style="opacity:0.023" fill="#e5e5e5" d="M 187.5,37.5 C 199.057,35.38 210.39,36.5467 221.5,41C 224.64,41.9911 226.974,43.8244 228.5,46.5C 216.052,38.36 202.386,35.36 187.5,37.5 Z"/></g>
<g><path style="opacity:0.098" fill="#e6e6e6" d="M 183.5,38.5 C 181.898,40.0739 179.898,40.7406 177.5,40.5C 179.214,39.2616 181.214,38.595 183.5,38.5 Z"/></g>
<g><path style="opacity:1" fill="#2a2a2a" d="M 187.5,37.5 C 202.386,35.36 216.052,38.36 228.5,46.5C 229.891,48.8903 231.891,50.5569 234.5,51.5C 234.833,52.5 235.5,53.1667 236.5,53.5C 239.184,58.2066 241.851,62.8733 244.5,67.5C 245.167,71.1667 245.833,74.8333 246.5,78.5C 246.5,82.8333 246.5,87.1667 246.5,91.5C 245.324,106.856 238.657,119.189 226.5,128.5C 223.558,129.304 220.891,130.638 218.5,132.5C 215.146,132.747 212.146,133.747 209.5,135.5C 200.805,135.673 192.138,135.34 183.5,134.5C 181.786,133.262 179.786,132.595 177.5,132.5C 176.077,130.455 174.077,129.455 171.5,129.5C 168.792,126.791 165.792,124.458 162.5,122.5C 157.967,116.092 153.967,109.425 150.5,102.5C 149.615,93.5133 149.448,84.5133 150,75.5C 151.801,70.9054 153.301,66.2388 154.5,61.5C 160.538,52.7987 168.205,45.7987 177.5,40.5C 179.898,40.7406 181.898,40.0739 183.5,38.5C 184.568,37.5655 185.901,37.2322 187.5,37.5 Z M 196.5,76.5 C 206.022,77.1987 209.522,82.1987 207,91.5C 202.494,96.5865 197.327,97.4198 191.5,94C 188.228,89.8555 187.728,85.3555 190,80.5C 191.792,78.372 193.958,77.0387 196.5,76.5 Z"/></g>
<g><path style="opacity:0.188" fill="#cccccc" d="M 177.5,40.5 C 168.205,45.7987 160.538,52.7987 154.5,61.5C 159.322,51.3428 166.989,44.3428 177.5,40.5 Z"/></g>
<g><path style="opacity:0.004" fill="#fefffe" d="M 238.5,44.5 C 239.833,45.1667 239.833,45.1667 238.5,44.5 Z"/></g>
<g><path style="opacity:0.094" fill="#c7c7c7" d="M 228.5,46.5 C 231.135,47.4735 233.135,49.1402 234.5,51.5C 231.891,50.5569 229.891,48.8903 228.5,46.5 Z"/></g>
<g><path style="opacity:0.94" fill="#343433" d="M 98.5,45.5 C 99.2674,46.172 99.9341,47.0053 100.5,48C 99.5164,75.9378 99.183,103.771 99.5,131.5C 111.148,132.499 122.814,132.832 134.5,132.5C 134.169,103.329 134.502,74.3285 135.5,45.5C 135.5,74.8333 135.5,104.167 135.5,133.5C 123.5,133.5 111.5,133.5 99.5,133.5C 98.5019,104.338 98.1686,75.0047 98.5,45.5 Z"/></g>
<g><path style="opacity:0.004" fill="#f5f5f5" d="M 234.5,51.5 C 235.833,51.5 236.5,52.1667 236.5,53.5C 235.5,53.1667 234.833,52.5 234.5,51.5 Z"/></g>
<g><path style="opacity:0.086" fill="#e3e3e3" d="M 236.5,53.5 C 239.366,55.5459 241.533,58.2126 243,61.5C 244.128,63.3453 244.628,65.3453 244.5,67.5C 241.851,62.8733 239.184,58.2066 236.5,53.5 Z"/></g>
<g><path style="opacity:0.125" fill="#dadada" d="M 58.5,56.5 C 63.9546,60.1146 69.288,63.948 74.5,68C 76.1412,69.129 77.1412,70.629 77.5,72.5C 72.2184,67.8542 66.5518,63.6876 60.5,60C 59.1772,59.1841 58.5106,58.0174 58.5,56.5 Z"/></g>
<g><path style="opacity:0.161" fill="#dcdbdb" d="M 244.5,67.5 C 246.568,70.763 247.568,74.4296 247.5,78.5C 247.167,78.5 246.833,78.5 246.5,78.5C 245.833,74.8333 245.167,71.1667 244.5,67.5 Z"/></g>
<g><path style="opacity:0.337" fill="#d7d7d6" d="M 77.5,72.5 C 80.7855,75.4 82.7855,79.0666 83.5,83.5C 81.264,80.033 79.264,76.3663 77.5,72.5 Z"/></g>
<g><path style="opacity:0.055" fill="#d9d9d8" d="M 194.5,75.5 C 204.826,74.661 209.659,79.3276 209,89.5C 208.31,92.196 206.81,94.3626 204.5,96C 191.078,99.5834 185.578,94.4167 188,80.5C 189.805,78.1743 191.972,76.5077 194.5,75.5 Z M 196.5,76.5 C 193.958,77.0387 191.792,78.372 190,80.5C 187.728,85.3555 188.228,89.8555 191.5,94C 197.327,97.4198 202.494,96.5865 207,91.5C 209.522,82.1987 206.022,77.1987 196.5,76.5 Z"/></g>
<g><path style="opacity:0.114" fill="#e2e2e2" d="M 13.5,55.5 C 20.6456,66.159 29.1456,75.8257 39,84.5C 41.3645,88.4738 40.8645,91.9738 37.5,95C 29.2363,96.3699 20.903,96.8699 12.5,96.5C 12.1714,109.011 12.5048,121.345 13.5,133.5C 13.5,133.833 13.5,134.167 13.5,134.5C 11.5191,121.876 10.8524,108.876 11.5,95.5C 18.5079,95.6663 25.5079,95.4996 32.5,95C 39.6777,93.7407 41.1777,90.2407 37,84.5C 30.3333,78.5 24,72.1667 18,65.5C 15.676,62.5201 14.176,59.1867 13.5,55.5 Z"/></g>
<g><path style="opacity:0.314" fill="#d3d3d3" d="M 154.5,61.5 C 153.301,66.2388 151.801,70.9054 150,75.5C 149.448,84.5133 149.615,93.5133 150.5,102.5C 146.745,92.0268 146.579,81.3601 150,70.5C 151.019,67.1284 152.519,64.1284 154.5,61.5 Z"/></g>
<g><path style="opacity:0.686" fill="#8f8d8c" d="M 246.5,78.5 C 246.833,78.5 247.167,78.5 247.5,78.5C 248.355,82.8765 248.355,87.2098 247.5,91.5C 247.167,91.5 246.833,91.5 246.5,91.5C 246.5,87.1667 246.5,82.8333 246.5,78.5 Z"/></g>
<g><path style="opacity:0.193" fill="#e1e1e1" d="M 98.5,45.5 C 98.1686,75.0047 98.5019,104.338 99.5,133.5C 99.5,133.833 99.5,134.167 99.5,134.5C 97.508,105.519 96.8413,76.1857 97.5,46.5C 85.4954,46.3335 73.4954,46.5001 61.5,47C 57.4394,49.0986 56.4394,52.2652 58.5,56.5C 57.8826,56.3893 57.3826,56.056 57,55.5C 55.5418,51.2194 56.7084,48.0527 60.5,46C 73.1623,45.5001 85.8289,45.3334 98.5,45.5 Z"/></g>
<g><path style="opacity:0.361" fill="#bdbcbc" d="M 157.5,44.5 C 150.5,45.1667 143.5,45.8333 136.5,46.5C 136.667,75.8352 136.5,105.169 136,134.5C 123.952,135.699 111.786,135.699 99.5,134.5C 99.5,134.167 99.5,133.833 99.5,133.5C 111.5,133.5 123.5,133.5 135.5,133.5C 135.5,104.167 135.5,74.8333 135.5,45.5C 142.648,44.5084 149.981,44.175 157.5,44.5 Z"/></g>
<g><path style="opacity:0.063" fill="#dcdcdc" d="M 83.5,83.5 C 88.7738,100.517 85.1071,115.351 72.5,128C 66.3464,132.718 59.3464,135.051 51.5,135C 38.6599,135.827 25.9933,135.66 13.5,134.5C 13.5,134.167 13.5,133.833 13.5,133.5C 28.1705,133.667 42.8371,133.5 57.5,133C 62.5179,131.773 67.1845,129.773 71.5,127C 83.345,114.798 87.345,100.298 83.5,83.5 Z"/></g>
<g><path style="opacity:0.008" fill="#dbdbda" d="M 150.5,102.5 C 153.967,109.425 157.967,116.092 162.5,122.5C 155.984,117.489 151.984,110.823 150.5,102.5 Z"/></g>
<g><path style="opacity:0.047" fill="#dedede" d="M 246.5,91.5 C 246.833,91.5 247.167,91.5 247.5,91.5C 247.45,107.948 240.45,120.282 226.5,128.5C 238.657,119.189 245.324,106.856 246.5,91.5 Z"/></g>
<g><path style="opacity:0.137" fill="#d4d3d3" d="M 162.5,122.5 C 165.792,124.458 168.792,126.791 171.5,129.5C 167.592,128.25 164.592,125.917 162.5,122.5 Z"/></g>
<g><path style="opacity:0.09" fill="#e4e4e3" d="M 226.5,128.5 C 224.421,130.873 221.754,132.206 218.5,132.5C 220.891,130.638 223.558,129.304 226.5,128.5 Z"/></g>
<g><path style="opacity:0.024" fill="#d2d1d1" d="M 171.5,129.5 C 174.077,129.455 176.077,130.455 177.5,132.5C 175.03,132.346 173.03,131.346 171.5,129.5 Z"/></g>
<g><path style="opacity:0.012" fill="#f2f2f2" d="M 177.5,132.5 C 179.786,132.595 181.786,133.262 183.5,134.5C 181.102,134.741 179.102,134.074 177.5,132.5 Z"/></g>
<g><path style="opacity:0.02" fill="#ecebeb" d="M 218.5,132.5 C 215.916,134.472 212.916,135.472 209.5,135.5C 212.146,133.747 215.146,132.747 218.5,132.5 Z"/></g>
<g><path style="opacity:0.22" fill="#e1e0e0" d="M 183.5,134.5 C 192.138,135.34 200.805,135.673 209.5,135.5C 202.011,136.656 194.345,136.822 186.5,136C 185.263,135.768 184.263,135.268 183.5,134.5 Z"/></g>
<g><path style="opacity:0.547" fill="#cdcdcd" d="M 59.5,141.5 C 58.7326,140.828 58.0659,139.995 57.5,139C 42.5037,138.5 27.5037,138.333 12.5,138.5C 11.5009,199.331 11.1676,260.331 11.5,321.5C 10.5009,260.336 10.1676,199.002 10.5,137.5C 26.5093,136.134 42.5093,136.3 58.5,138C 59.3366,139.011 59.67,140.178 59.5,141.5 Z"/></g>
<g><path style="opacity:1" fill="#292929" d="M 12.5,138.5 C 27.5037,138.333 42.5037,138.5 57.5,139C 58.0659,139.995 58.7326,140.828 59.5,141.5C 59.3433,142.873 59.51,144.207 60,145.5C 60.9022,147.431 62.0688,149.097 63.5,150.5C 63.5516,153.346 64.5516,155.68 66.5,157.5C 67.0421,160.912 68.3754,163.912 70.5,166.5C 70.6596,168.153 71.3263,169.486 72.5,170.5C 74.0792,176.264 76.4126,181.597 79.5,186.5C 79.1201,188.698 79.7868,190.365 81.5,191.5C 81.2291,193.38 81.8958,194.713 83.5,195.5C 83.4021,197.553 84.0687,199.22 85.5,200.5C 85.6596,202.153 86.3263,203.486 87.5,204.5C 87.281,205.675 87.6143,206.675 88.5,207.5C 89.4997,184.51 89.8331,161.51 89.5,138.5C 104.5,138.5 119.5,138.5 134.5,138.5C 134.5,139.833 134.5,141.167 134.5,142.5C 133.501,201.664 133.168,260.998 133.5,320.5C 118.833,320.5 104.167,320.5 89.5,320.5C 79.8333,299.833 70.1667,279.167 60.5,258.5C 59.8117,255.709 58.8117,253.709 57.5,252.5C 56.5025,274.994 56.1692,297.661 56.5,320.5C 41.8333,320.5 27.1667,320.5 12.5,320.5C 12.5,259.833 12.5,199.167 12.5,138.5 Z"/></g>
<g><path style="opacity:1" fill="#292929" d="M 141.5,138.5 C 177.167,138.5 212.833,138.5 248.5,138.5C 248.5,156.5 248.5,174.5 248.5,192.5C 230.833,192.5 213.167,192.5 195.5,192.5C 195.5,195.833 195.5,199.167 195.5,202.5C 209.5,202.5 223.5,202.5 237.5,202.5C 237.5,220.5 237.5,238.5 237.5,256.5C 223.323,256.171 209.323,256.504 195.5,257.5C 195.5,260.5 195.5,263.5 195.5,266.5C 213.167,266.5 230.833,266.5 248.5,266.5C 248.5,284.5 248.5,302.5 248.5,320.5C 212.833,320.5 177.167,320.5 141.5,320.5C 141.5,259.833 141.5,199.167 141.5,138.5 Z"/></g>
<g><path style="opacity:0.11" fill="#d4d4d4" d="M 59.5,141.5 C 61.5918,144.088 62.9251,147.088 63.5,150.5C 62.0688,149.097 60.9022,147.431 60,145.5C 59.51,144.207 59.3433,142.873 59.5,141.5 Z"/></g>
<g><path style="opacity:0.082" fill="#d6d6d5" d="M 63.5,150.5 C 65.2927,152.426 66.2927,154.759 66.5,157.5C 64.5516,155.68 63.5516,153.346 63.5,150.5 Z"/></g>
<g><path style="opacity:0.588" fill="#8e8d8d" d="M 140.5,138.5 C 140.5,138.167 140.5,137.833 140.5,137.5C 176.833,137.5 213.167,137.5 249.5,137.5C 249.83,156.008 249.497,174.341 248.5,192.5C 248.5,174.5 248.5,156.5 248.5,138.5C 212.833,138.5 177.167,138.5 141.5,138.5C 141.167,138.5 140.833,138.5 140.5,138.5 Z"/></g>
<g><path style="opacity:0.078" fill="#e3e3e3" d="M 66.5,157.5 C 68.6246,160.088 69.9579,163.088 70.5,166.5C 68.3754,163.912 67.0421,160.912 66.5,157.5 Z"/></g>
<g><path style="opacity:0.037" fill="#f8f8f8" d="M 249.5,137.5 C 250.166,146.661 250.5,155.994 250.5,165.5C 250.498,175.191 249.832,184.525 248.5,193.5C 248.5,193.167 248.5,192.833 248.5,192.5C 249.497,174.341 249.83,156.008 249.5,137.5 Z"/></g>
<g><path style="opacity:0.067" fill="#ececec" d="M 70.5,166.5 C 72.1042,167.287 72.7709,168.62 72.5,170.5C 71.3263,169.486 70.6596,168.153 70.5,166.5 Z"/></g>
<g><path style="opacity:0.351" fill="#c1c1c0" d="M 89.5,137.5 C 89.5,137.833 89.5,138.167 89.5,138.5C 89.8331,161.51 89.4997,184.51 88.5,207.5C 87.6143,206.675 87.281,205.675 87.5,204.5C 88.1667,182.167 88.8333,159.833 89.5,137.5 Z"/></g>
<g><path style="opacity:0.024" fill="#e4e4e3" d="M 72.5,170.5 C 75.5956,175.437 77.9289,180.77 79.5,186.5C 76.4126,181.597 74.0792,176.264 72.5,170.5 Z"/></g>
<g><path style="opacity:0.675" fill="#b7b7b7" d="M 79.5,186.5 C 80.9313,187.78 81.5979,189.447 81.5,191.5C 79.7868,190.365 79.1201,188.698 79.5,186.5 Z"/></g>
<g><path style="opacity:0.786" fill="#4d4b49" d="M 140.5,138.5 C 140.833,138.5 141.167,138.5 141.5,138.5C 141.5,199.167 141.5,259.833 141.5,320.5C 177.167,320.5 212.833,320.5 248.5,320.5C 248.5,320.833 248.5,321.167 248.5,321.5C 212.5,321.5 176.5,321.5 140.5,321.5C 140.5,260.5 140.5,199.5 140.5,138.5 Z"/></g>
<g><path style="opacity:0.071" fill="#e2e1e1" d="M 81.5,191.5 C 83.1042,192.287 83.7709,193.62 83.5,195.5C 81.8958,194.713 81.2291,193.38 81.5,191.5 Z"/></g>
<g><path style="opacity:0.114" fill="#e4e3e3" d="M 83.5,195.5 C 84.9313,196.78 85.5979,198.447 85.5,200.5C 84.0687,199.22 83.4021,197.553 83.5,195.5 Z"/></g>
<g><path style="opacity:0.263" fill="#d3d2d2" d="M 89.5,138.5 C 89.5,138.167 89.5,137.833 89.5,137.5C 105.242,136.858 120.742,137.525 136,139.5C 136.257,200.473 136.09,261.139 135.5,321.5C 135.167,321.5 134.833,321.5 134.5,321.5C 134.5,261.833 134.5,202.167 134.5,142.5C 134.5,141.167 134.5,139.833 134.5,138.5C 119.5,138.5 104.5,138.5 89.5,138.5 Z"/></g>
<g><path style="opacity:0.037" fill="#e9e9e9" d="M 85.5,200.5 C 87.1042,201.287 87.7709,202.62 87.5,204.5C 86.3263,203.486 85.6596,202.153 85.5,200.5 Z"/></g>
<g><path style="opacity:0.292" fill="#d5d5d5" d="M 248.5,192.5 C 248.5,192.833 248.5,193.167 248.5,193.5C 231.229,193.725 213.895,194.058 196.5,194.5C 196.5,196.833 196.5,199.167 196.5,201.5C 210.167,201.5 223.833,201.5 237.5,201.5C 237.5,201.833 237.5,202.167 237.5,202.5C 223.5,202.5 209.5,202.5 195.5,202.5C 195.5,199.167 195.5,195.833 195.5,192.5C 213.167,192.5 230.833,192.5 248.5,192.5 Z"/></g>
<g><path style="opacity:0.004" fill="#fefffe" d="M 254.5,207.5 C 255.833,208.167 255.833,208.167 254.5,207.5 Z"/></g>
<g><path style="opacity:0.902" fill="#3c393a" d="M 134.5,142.5 C 134.5,202.167 134.5,261.833 134.5,321.5C 119.324,321.829 104.324,321.496 89.5,320.5C 104.167,320.5 118.833,320.5 133.5,320.5C 133.168,260.998 133.501,201.664 134.5,142.5 Z"/></g>
<g><path style="opacity:0.084" fill="#f3f3f3" d="M 237.5,202.5 C 237.5,202.167 237.5,201.833 237.5,201.5C 238.832,210.475 239.498,219.809 239.5,229.5C 239.5,239.006 239.166,248.339 238.5,257.5C 238.83,238.992 238.497,220.659 237.5,202.5 Z"/></g>
<g><path style="opacity:0.65" fill="#747373" d="M 237.5,202.5 C 238.497,220.659 238.83,238.992 238.5,257.5C 224.167,257.5 209.833,257.5 195.5,257.5C 209.323,256.504 223.323,256.171 237.5,256.5C 237.5,238.5 237.5,220.5 237.5,202.5 Z"/></g>
<g><path style="opacity:0.106" fill="#d9d9d9" d="M 60.5,258.5 C 70.1667,279.167 79.8333,299.833 89.5,320.5C 104.324,321.496 119.324,321.829 134.5,321.5C 134.833,321.5 135.167,321.5 135.5,321.5C 120.005,322.661 104.339,322.828 88.5,322C 78.4872,301.14 69.1539,279.974 60.5,258.5 Z"/></g>
<g><path style="opacity:0.153" fill="#ebebeb" d="M 195.5,257.5 C 209.833,257.5 224.167,257.5 238.5,257.5C 224.677,258.496 210.677,258.829 196.5,258.5C 196.5,260.833 196.5,263.167 196.5,265.5C 214.341,265.17 232.008,265.503 249.5,266.5C 249.167,266.5 248.833,266.5 248.5,266.5C 230.833,266.5 213.167,266.5 195.5,266.5C 195.5,263.5 195.5,260.5 195.5,257.5 Z"/></g>
<g><path style="opacity:0.063" fill="#f5f5f5" d="M 60.5,258.5 C 59.8826,258.389 59.3826,258.056 59,257.5C 58.8319,279.004 58.3319,300.337 57.5,321.5C 57.5,298.5 57.5,275.5 57.5,252.5C 58.8117,253.709 59.8117,255.709 60.5,258.5 Z"/></g>
<g><path style="opacity:0.621" fill="#a4a3a2" d="M 248.5,266.5 C 248.833,266.5 249.167,266.5 249.5,266.5C 250.833,284.833 250.833,303.167 249.5,321.5C 249.167,321.5 248.833,321.5 248.5,321.5C 248.5,321.167 248.5,320.833 248.5,320.5C 248.5,302.5 248.5,284.5 248.5,266.5 Z"/></g>
<g><path style="opacity:0.004" fill="#fefffe" d="M 5.5,306.5 C 6.83333,307.167 6.83333,307.167 5.5,306.5 Z"/></g>
<g><path style="opacity:0.773" fill="#737272" d="M 12.5,138.5 C 12.5,199.167 12.5,259.833 12.5,320.5C 27.1667,320.5 41.8333,320.5 56.5,320.5C 56.1692,297.661 56.5025,274.994 57.5,252.5C 57.5,275.5 57.5,298.5 57.5,321.5C 42.1667,322.833 26.8333,322.833 11.5,321.5C 11.1676,260.331 11.5009,199.331 12.5,138.5 Z"/></g>
<g><path style="opacity:0.105" fill="#e8e8e7" d="M 140.5,137.5 C 140.5,137.833 140.5,138.167 140.5,138.5C 140.5,199.5 140.5,260.5 140.5,321.5C 176.5,321.5 212.5,321.5 248.5,321.5C 248.833,321.5 249.167,321.5 249.5,321.5C 213.004,322.498 176.337,322.832 139.5,322.5C 139.168,260.664 139.501,198.998 140.5,137.5 Z"/></g>
<g><path style="opacity:0.004" fill="#fefffe" d="M 178.5,324.5 C 179.833,325.167 179.833,325.167 178.5,324.5 Z"/></g>
</svg>
