<svg width="506" height="500" viewBox="0 0 506 500" fill="none" xmlns="http://www.w3.org/2000/svg">
<path d="M70 192.711V301.422H267.277H464.554V282.905V264.388H451.66H438.766V228.55V192.711H355.6H272.434V210.033V227.355H255.672H238.91V186.14V144.926H190.558H142.206V165.234V185.543H134.47H126.733V134.772V84H98.3666H70V192.711ZM122.607 136.205L122.22 184.946L109.069 185.304C99.656 185.543 95.7878 186.021 95.7878 187.096C95.7878 187.932 95.7878 213.139 95.7878 243.124V297.838H84.828H73.8682V192.711V87.5839H98.3666H122.994L122.607 136.205ZM236.332 187.932V227.355H213.767H191.203V262.596V297.838H180.888H170.573V241.69V185.543H158.323H146.074V167.026V148.51H191.203H236.332V187.932ZM122.865 243.482V297.838H111.261H99.656V243.482V189.127H111.261H122.865V243.482ZM142.206 243.482V297.838H134.47H126.733V243.482V189.127H134.47H142.206V243.482ZM166.704 243.482V297.838H156.389H146.074V243.482V189.127H156.389H166.704V243.482ZM434.898 230.341V264.388H412.333H389.769V245.872V227.355H333.036H276.303V211.825V196.295H355.6H434.898V230.341ZM236.332 264.388V297.838H215.701H195.071V264.388V230.939H215.701H236.332V264.388ZM272.434 264.388V297.838H255.672H238.91V265.225C238.91 247.186 239.297 232.133 239.813 231.775C240.2 231.297 247.807 230.939 256.575 230.939H272.434V264.388ZM385.901 247.664V264.388H341.417H296.933V281.113V297.838H286.618H276.303V264.388V230.939H331.102H385.901V247.664ZM385.901 282.905V297.838H343.351H300.801V282.905V267.972H343.351H385.901V282.905ZM434.898 282.905V297.838H412.333H389.769V282.905V267.972H412.333H434.898V282.905ZM460.686 282.905V297.838H449.726H438.766V283.741C438.766 275.976 439.153 269.167 439.669 268.808C440.055 268.331 445.084 267.972 450.628 267.972H460.686V282.905Z" fill="white"/>
<path d="M95.6587 324C86.3751 326.748 81.6044 332.601 81.6044 340.964C81.6044 347.773 87.4066 353.029 97.8507 355.777C112.421 359.48 114.484 360.436 114.871 363.662C115.129 365.454 114.355 367.484 113.194 368.321C109.971 370.829 97.206 370.232 90.6301 367.245C87.5356 365.931 84.9568 364.856 84.8278 365.095C84.57 365.215 83.5384 367.126 82.2491 369.396C80.0571 373.338 80.0571 373.577 82.378 375.13C86.1172 377.639 96.9481 380.267 103.395 380.267C112.163 380.267 118.739 378.236 123.896 373.696C128.28 369.993 128.667 369.157 128.667 362.945C128.667 356.852 128.28 355.777 124.67 352.91C122.091 350.76 116.934 348.609 109.842 346.937C95.014 343.233 91.5327 340.127 97.0771 335.468C100.429 332.601 111.776 332.601 117.578 335.349C122.478 337.738 122.22 337.858 124.799 332.123L126.862 327.584L121.962 325.673C116.418 323.522 100.687 322.447 95.6587 324Z" fill="white"/>
<path d="M139.627 331.884C139.627 337.021 139.498 337.26 135.759 337.26C132.149 337.26 131.891 337.499 131.891 341.919C131.891 346.22 132.278 346.698 135.501 347.056L138.983 347.414L139.627 359.361C140.014 365.931 140.917 372.263 141.432 373.457C143.109 376.802 149.298 379.072 156.647 379.072C166.06 379.072 167.349 378.116 165.544 372.741C164.126 368.798 163.61 368.559 159.742 369.157C153.553 370.112 152.392 367.843 152.779 356.733L153.166 347.414L158.71 347.056C164.126 346.698 164.126 346.698 164.126 341.919V337.26H158.323H152.521V331.884V326.509H146.074H139.627V331.884Z" fill="white"/>
<path d="M182.177 333.915C174.699 338.694 172.507 342.517 172.507 350.879C172.507 357.21 173.022 359.002 176.117 362.706C183.337 371.546 181.532 371.307 244.068 371.665C310.6 372.143 314.726 371.904 320.916 366.887C326.976 361.989 329.168 357.569 329.168 350.759C329.168 343.472 324.913 336.543 318.853 333.557C314.726 331.407 310.214 331.287 250.386 331.287H186.432L182.177 333.915ZM316.403 343.114C321.56 348.012 321.56 353.985 316.403 358.883L312.663 362.347H250.902C183.337 362.347 185.529 362.586 182.177 355.299C180.243 350.759 181.274 346.339 185.401 342.517L188.495 339.649H250.515H312.663L316.403 343.114Z" fill="white"/>
<path d="M351.087 358.166V379.072H358.179H365.271V365.453C365.271 352.074 365.4 351.715 368.623 349.326C372.62 346.459 377.907 346.1 381.517 348.49C383.709 350.043 383.967 351.954 384.354 364.617L384.869 379.072H391.187H397.506V364.139C397.506 347.773 396.474 344.308 390.285 339.769C386.03 336.663 372.362 336.185 368.365 339.052C365.142 341.322 363.981 341.322 363.981 339.052C363.981 337.738 362.434 337.26 357.534 337.26H351.087V358.166Z" fill="white"/>
<path d="M416.717 340.605C402.663 348.968 403.437 369.157 418.136 376.324C427.806 381.103 447.534 379.311 449.984 373.457C450.371 372.502 449.339 370.351 447.534 368.798C444.568 365.931 444.181 365.931 440.571 367.723C434.124 370.829 427.548 370.112 422.907 365.573L418.78 361.75L436.574 361.392L454.239 361.033V356.613C454.239 351.357 449.855 343.831 444.826 340.366C442.118 338.574 438.766 337.738 431.932 337.499C423.422 337.141 422.133 337.38 416.717 340.605ZM438.766 349.206C443.15 353.268 441.861 353.985 430.385 353.985C424.325 353.985 419.425 353.627 419.425 353.149C419.425 352.671 420.715 351.118 422.262 349.565C426.001 345.862 435.027 345.742 438.766 349.206Z" fill="white"/>
<path d="M378.165 412.522C378.165 418.376 378.165 418.376 375.07 417.181C370.558 415.15 363.208 416.823 360.113 420.526C358.437 422.557 357.535 425.424 357.535 428.65C357.535 431.875 358.437 434.742 360.113 436.773C363.208 440.476 370.558 442.149 375.07 440.118C377.004 439.401 378.165 439.282 378.165 439.998C378.165 440.715 379.97 441.193 382.033 441.193H385.901V423.871V406.549H382.033C378.294 406.549 378.165 406.668 378.165 412.522ZM376.102 423.632C377.649 424.707 378.294 426.38 377.907 429.127C377.391 434.264 374.426 436.176 369.526 434.503C362.692 432.353 364.497 422.079 371.718 422.079C372.878 422.079 374.813 422.796 376.102 423.632Z" fill="white"/>
<path d="M200.229 414.434C200.229 421.004 200.229 421.004 197.392 419.212C194.04 416.942 188.753 416.823 184.24 418.615C181.146 419.929 177.02 426.021 177.02 429.247C177.02 432.472 181.146 438.565 184.24 439.879C188.753 441.671 194.04 441.552 197.392 439.282C199.971 437.609 200.229 437.609 200.229 439.282C200.229 440.357 201.131 441.193 202.163 441.193C203.839 441.193 204.097 438.565 204.097 424.468C204.097 410.372 203.839 407.744 202.163 407.744C200.615 407.744 200.229 409.297 200.229 414.434ZM198.037 423.513C203.323 429.366 198.939 438.087 190.558 438.087C182.693 438.087 178.438 430.919 182.306 424.349C185.143 419.331 193.782 418.854 198.037 423.513Z" fill="white"/>
<path d="M253.094 413C253.094 415.269 252.449 416.106 250.515 416.106C248.581 416.106 247.936 416.942 247.936 419.092C247.936 421.242 248.581 422.079 250.515 422.079C252.836 422.079 253.094 422.915 253.094 429.724C253.094 436.414 253.48 437.728 255.93 439.281C259.025 441.312 266.632 441.909 267.793 440.118C269.211 437.967 267.019 435.22 263.924 435.22C261.088 435.22 260.83 434.742 260.83 428.649C260.83 422.437 260.959 422.079 264.053 422.079C266.632 422.079 267.277 421.481 267.277 419.092C267.277 416.703 266.632 416.106 264.182 416.106C261.861 416.106 260.959 415.389 260.572 413.358C260.314 411.447 259.154 410.61 256.704 410.371C253.609 410.013 253.094 410.371 253.094 413Z" fill="white"/>
<path d="M227.95 417.42C219.569 422.079 222.793 429.127 234.14 431.038C236.847 431.516 238.781 432.472 238.523 433.308C237.879 435.1 230.658 435.697 227.564 434.144C225.501 433.189 224.856 433.428 223.695 435.817C222.406 438.326 222.664 438.684 226.274 439.879C232.592 441.909 239.426 441.432 243.294 438.684C249.999 433.786 246.518 428.052 236.074 426.379C232.85 425.782 231.174 424.946 231.174 423.632C231.174 422.079 232.205 421.84 237.492 422.437C243.165 423.034 244.068 422.915 244.713 420.765C245.228 419.451 245.228 418.017 244.841 417.659C243.294 416.225 230.529 416.106 227.95 417.42Z" fill="white"/>
<path d="M273.724 428.65V441.193H277.592H281.46V433.07C281.46 424.707 282.75 422.079 286.876 422.079C288.552 422.079 289.197 421.123 289.197 419.093C289.197 415.748 287.907 415.389 283.652 417.42C281.589 418.495 280.816 418.495 280.429 417.42C280.171 416.703 278.495 416.106 276.818 416.106C273.724 416.106 273.724 416.225 273.724 428.65Z" fill="white"/>
<path d="M297.32 417.3C294.096 418.495 293.839 419.45 295.515 421.84C296.159 422.915 297.707 423.154 299.899 422.556C304.541 421.601 309.827 422.915 309.827 425.065C309.827 426.379 308.28 426.857 304.283 426.857C297.191 426.857 293.065 429.485 293.065 434.025C293.065 439.878 301.962 443.223 308.667 439.998C310.343 439.162 311.116 439.162 311.116 439.998C311.116 440.595 312.535 441.193 314.34 441.193C317.563 441.193 317.563 441.073 317.563 431.158C317.563 421.72 317.306 420.884 314.211 418.614C310.601 415.986 302.606 415.389 297.32 417.3ZM309.827 432.83C309.827 435.578 304.025 437.489 301.833 435.458C299.512 433.308 301.704 430.441 305.959 430.441C308.924 430.441 309.827 430.919 309.827 432.83Z" fill="white"/>
<path d="M325.3 428.65V441.193H329.168H333.036V433.07C333.036 424.349 334.325 422.079 339.096 422.079C343.093 422.079 344.64 425.424 344.64 433.906V441.193H348.509H352.377V432.831C352.377 428.291 351.732 423.274 350.958 421.721C348.509 416.703 340.901 414.672 335.228 417.42C333.165 418.495 332.391 418.495 332.004 417.42C331.747 416.703 330.07 416.106 328.394 416.106C325.3 416.106 325.3 416.225 325.3 428.65Z" fill="white"/>
<path d="M119.384 418.495C115 420.168 115.516 422.557 120.029 421.362C128.281 419.212 133.051 420.885 133.18 425.902C133.18 427.694 132.02 428.052 126.347 428.052C118.739 428.052 115.129 430.322 115.129 434.981C115.129 439.879 124.541 442.985 130.731 439.998C132.407 439.162 133.18 439.162 133.18 439.998C133.18 440.596 134.083 441.193 135.114 441.193C136.662 441.193 137.049 439.401 137.049 432.233C137.049 424.229 136.662 422.796 133.825 420.287C130.602 417.181 124.799 416.464 119.384 418.495ZM132.923 433.07C132.407 436.892 126.218 439.521 122.092 437.729C118.868 436.415 117.837 432.233 120.673 431.278C121.447 430.919 124.67 430.561 127.765 430.561C132.794 430.441 133.309 430.68 132.923 433.07Z" fill="white"/>
<path d="M146.074 429.247C146.074 439.043 146.461 441.193 148.008 441.193C149.556 441.193 149.942 439.521 149.942 433.428C149.942 426.619 150.329 425.185 153.166 422.676C156.776 419.212 159.742 418.973 163.868 421.601C166.318 423.154 166.704 424.468 166.704 432.353C166.704 439.401 167.091 441.193 168.639 441.193C170.186 441.193 170.573 439.401 170.573 432.233C170.573 424.229 170.186 422.796 167.349 420.287C163.739 416.823 157.163 416.345 152.779 419.212C150.2 420.885 149.942 420.885 149.942 419.212C149.942 418.137 149.04 417.301 148.008 417.301C146.461 417.301 146.074 419.451 146.074 429.247Z" fill="white"/>
</svg>
